<svg id="svg" version="1.1" xmlns="http://www.w3.org/2000/svg" xmlns:xlink="http://www.w3.org/1999/xlink" width="400" height="225" viewBox="0, 0, 400,225"><g id="svgg"><path id="path0" d="M217.240 28.237 C 175.662 29.014,129.507 36.345,97.240 47.295 C 75.292 54.743,58.312 64.905,47.135 77.280 C 38.778 86.532,35.893 92.833,35.897 101.823 C 35.900 108.649,37.654 114.379,41.493 120.104 C 50.662 133.777,63.071 144.585,79.751 153.426 C 93.885 160.917,113.175 167.525,136.042 172.708 C 171.344 180.710,210.675 184.281,243.281 182.445 C 275.858 180.611,306.264 173.813,347.083 159.237 C 355.212 156.335,374.838 148.994,375.879 148.467 C 379.950 146.403,379.830 138.877,375.694 136.937 C 373.507 135.911,372.694 136.041,366.406 138.416 C 345.614 146.269,334.517 150.221,322.813 153.942 C 317.179 155.733,317.208 155.725,317.142 155.553 C 317.110 155.468,317.083 135.561,317.083 111.315 C 317.083 67.289,317.070 65.427,316.719 60.880 C 316.486 57.863,316.012 54.653,315.562 53.047 C 315.462 52.691,315.527 52.704,320.271 54.056 C 331.991 57.395,343.904 61.187,362.865 67.613 L 369.427 69.837 370.677 69.876 C 374.410 69.993,376.720 67.766,376.708 64.063 C 376.698 61.072,375.404 59.450,372.135 58.329 C 307.510 36.172,273.866 29.025,230.435 28.229 C 224.542 28.121,223.405 28.122,217.240 28.237 M231.615 39.896 C 245.486 40.216,257.248 41.186,270.260 43.084 C 277.833 44.189,289.323 46.260,289.323 46.520 C 289.323 46.580,288.737 47.100,288.021 47.676 C 281.716 52.750,272.924 61.909,261.182 75.636 C 250.408 88.231,232.707 110.123,223.121 122.708 C 217.098 130.615,215.916 131.695,213.281 131.695 C 210.647 131.695,209.464 130.615,203.442 122.708 C 180.069 92.024,152.612 59.933,141.068 49.806 C 139.780 48.676,139.444 48.333,139.625 48.333 C 139.649 48.333,141.113 48.055,142.881 47.715 C 171.660 42.175,204.600 39.273,231.615 39.896 M110.370 56.068 C 110.330 56.368,110.231 57.107,110.151 57.708 C 109.963 59.126,109.718 62.294,109.585 65.047 C 109.517 66.447,109.479 82.408,109.479 109.556 C 109.479 143.320,109.453 151.892,109.349 151.931 C 108.937 152.090,98.830 148.233,93.698 145.959 C 77.404 138.739,64.147 129.063,54.139 117.084 C 45.614 106.879,45.221 98.494,52.822 88.953 C 64.104 74.791,81.472 64.448,107.708 56.265 C 110.615 55.359,110.464 55.370,110.370 56.068 M129.583 63.910 C 133.704 67.551,141.078 75.344,148.700 84.115 C 160.062 97.188,180.723 122.687,190.520 135.729 C 197.934 145.599,203.265 149.076,211.757 149.579 C 221.557 150.160,227.934 146.523,236.043 135.729 C 247.812 120.062,270.570 92.203,282.546 78.802 C 289.909 70.563,298.664 61.835,298.873 62.525 C 299.178 63.534,299.211 67.778,299.268 113.490 C 299.316 151.319,299.351 159.813,299.463 160.143 C 299.644 160.676,299.763 160.620,297.031 161.296 C 277.818 166.053,258.727 168.914,240.365 169.787 C 233.012 170.137,219.747 170.194,212.969 169.904 C 186.315 168.765,161.477 165.448,136.771 159.728 C 133.889 159.061,127.691 157.496,127.472 157.379 C 127.295 157.286,127.289 155.263,127.320 112.209 C 127.353 68.309,127.380 64.369,127.665 62.619 L 127.722 62.268 127.950 62.468 C 128.075 62.578,128.810 63.227,129.583 63.910 " stroke="none" fill="#000000" fill-rule="evenodd"></path></g></svg>